<?xml version="1.0" encoding="UTF-8" standalone="no"?><!DOCTYPE svg PUBLIC "-//W3C//DTD SVG 1.1//EN" "http://www.w3.org/Graphics/SVG/1.1/DTD/svg11.dtd"><svg width="100%" height="100%" viewBox="0 0 362 629" version="1.1" xmlns="http://www.w3.org/2000/svg" xmlns:xlink="http://www.w3.org/1999/xlink" xml:space="preserve" xmlns:serif="http://www.serif.com/" style="fill-rule:evenodd;clip-rule:evenodd;stroke-linejoin:round;stroke-miterlimit:2;"><path d="M243.224,1.558l25,0l0,308.333l66.667,0l0,-241.667l25,0l0,470.833l-25,0l0,-216.667l-158.333,4.167c0,20.625 0.615,33.871 0.615,55.121c0.576,-0.562 1.052,-1.077 1.461,-1.561c2.095,-2.48 5.602,-7.195 9.575,-9.035c5.75,-2.663 15.692,-5.169 25.576,-5.454c0.501,-0.014 6.535,0.648 7.03,0.722c18.848,2.838 28.998,7.584 41.828,22.316c8.546,19.734 6.894,38.786 6.364,60.026l-0.171,12.964c-0.147,10.525 -0.352,21.045 -0.61,31.567l-25,0l-0.25,-8.15c-0.398,-12.215 -0.854,-24.428 -1.312,-36.641l-0.391,-12.826l-0.488,-12.37l-0.397,-11.373c-1.411,-10.945 -1.688,-17.11 -4.505,-21.997c-2.123,-3.683 -11.209,-6.978 -12.395,-7.326c-9.942,-2.916 -17.607,-3.201 -21.994,-2.473c-2.241,0.372 -4.436,1.617 -5.867,2.331c-9.616,4.799 -12.529,9.723 -19.067,19.158c-3.645,15.708 -3.687,31.061 -3.646,47.135l-0.26,12.964c-0.196,10.526 -0.279,21.04 -0.26,31.567l-20.833,0l0,-170.833l-33.333,0l0,304.167l-25,0l0,-304.167l-62.5,0l0,216.667l-29.167,0l0,-416.667l29.167,0l0,187.5l158.333,0l0,-50l-13.021,6.25c-16.79,7.046 -30.514,10.236 -47.99,3.519c-0.252,-0.097 -0.504,-0.195 -0.757,-0.296c-17.043,-8.79 -29.504,-18.975 -34.066,-34.473c-4.66,-15.831 -3.083,-45.29 6.104,-60.514c7.688,-12.741 21.078,-23.579 35.563,-26.986c19.122,-4.498 52.25,0 79.167,0l0,162.5l29.167,0l0,-308.333Zm-54.638,240.98c0,0 -10.903,6.235 -16.269,8.319c-6.262,2.432 -20.66,7.393 -20.66,7.393c0,0 -6.823,0.636 -9.753,0.393c-3.617,-0.299 -12.267,-2.349 -12.267,-2.349c0,0 -5.778,-2.653 -8.693,-5.066c-3.04,-2.517 -6.774,-5.578 -9.338,-8.73c-2.48,-3.05 -3.193,-5.836 -5.007,-9.544c-1.789,-3.656 -3.684,-13.529 -3.684,-13.529c0,0 -0.277,-12.134 0.001,-16.859c0.256,-4.349 1.947,-11.33 1.947,-11.33c0,0 2.424,-8.122 4.541,-11.308c2.038,-3.067 2.717,-3.988 4.864,-6.433c2.382,-2.712 7.601,-7.592 10.18,-9.59c2.864,-2.22 4.507,-3.702 8.047,-5.332c3.491,-1.607 6.87,-2.55 10.725,-3.262c4.345,-0.803 10.072,-0.772 15.329,-0.822c6.323,-0.06 22.174,0.154 22.174,0.154l7.806,1.389l0.056,86.505Z" style="stroke:#000;stroke-width:3.12px;"/></svg>